<?xml version="1.0" encoding="utf-8"?>
<svg version="1.1" xmlns="http://www.w3.org/2000/svg" viewBox="0 0 1024 1024">
  <path fill="#F0B90B" d="M512 0L512 0L512 0L512 0L512 0Z" />
  <path fill="#F0B90B" d="M318.061 459.019L512.001 265.079L705.939 459.019L802.064 362.894L512.001 72.8305L221.936 362.894L318.061 459.019Z" />
  <path fill="#F0B90B" d="M72.8486 512.006L168.974 415.881L265.099 512.006L168.974 608.131L72.8486 512.006Z" />
  <path fill="#F0B90B" d="M318.061 564.981L512.001 758.921L705.939 564.981L802.084 661.086L512.001 951.17L221.936 661.106L221.916 661.086L318.061 564.981Z" />
  <path fill="#F0B90B" d="M758.901 512.006L855.026 415.881L951.151 512.006L855.026 608.131L758.901 512.006Z" />
  <path fill="#F0B90B" d="M512.001 564.981L608.126 468.856L704.251 564.981L608.126 661.106L512.001 564.981Z" />
  <path fill="#F0B90B" d="M512.001 459.019L415.876 362.894L512.001 266.769L608.126 362.894L512.001 459.019Z" />
</svg>
