<?xml version="1.0" encoding="utf-8"?>
<svg xmlns="http://www.w3.org/2000/svg" viewBox="0 0 507.83 470.86">
  <defs>
    <style>.cls-1{fill:#e17726;stroke:#e17726;}.cls-1,.cls-2,.cls-3,.cls-4,.cls-5,.cls-6{stroke-linecap:round;stroke-linejoin:round;}.cls-2{fill:#e27625;stroke:#e27625;}.cls-3{fill:#d5bfb2;stroke:#d5bfb2;}.cls-4{fill:#233447;stroke:#233447;}.cls-5{fill:#cc6228;stroke:#cc6228;}.cls-6{fill:#e27525;stroke:#e27525;}</style>
  </defs>
  <g>
    <path class="cls-1" d="M482.09,6.49l-198.16,147.05,36.87-87.29L482.09,6.49Z"/>
    <path class="cls-1" d="M25.74,6.49,222.25,154.76l-37.87-88.51L25.74,6.49Z"/>
    <path class="cls-1" d="M410.95,339.34l-52.43,80.16,112.33,30.92,32.21-109.35-92.11-1.73Z"/>
    <path class="cls-1" d="M4.77,341.07l32.21,109.35L149.31,419.5,96.88,339.34l-92.11,1.73Z"/>
    <path class="cls-1" d="M143.43,207.87l-34.24,51.68,122.44,5.43L227,207.87H143.43Z"/>
    <path class="cls-1" d="M364.4,207.87H280.83l-4.63,57.11,122.44-5.43-34.24-51.68Z"/>
    <path class="cls-2" d="M149.31,419.5l73.69-35.62L165.54,341.3l-16.23,78.2Z"/>
    <path class="cls-2" d="M284.83,383.88l73.69,35.62L342.29,341.3,284.83,383.88Z"/>
    <path class="cls-3" d="M223,207.87l4.63,89.25,5.77-46.08L223,207.87Z"/>
    <path class="cls-3" d="M284.83,207.87l-10.4,43.17,5.77,46.08,4.63-89.25Z"/>
    <path class="cls-4" d="M284.83,383.88,223,341.3l2.31,28.91-.25,12.2,59.77,1.47Z"/>
    <path class="cls-4" d="M149.31,419.5l59.77-35.62-.25-12.2,2.31-28.91-61.83,42.58Z"/>
    <path class="cls-5" d="M227.63,315.06l-59.77-17.39,42.2-19.37,17.57,36.76Z"/>
    <path class="cls-5" d="M280.2,315.06l17.57-36.76,42.2,19.37L280.2,315.06Z"/>
    <path class="cls-6" d="M149.31,419.5l16.23-78.2-63.89-2.23,47.66,80.43Z"/>
    <path class="cls-6" d="M342.29,341.3l16.23,78.2,47.66-80.43-63.89,2.23Z"/>
    <path class="cls-6" d="M398.52,259.55l-122.44,5.43,11.27,50.08,17.57-36.76,42.2,19.37,51.4-38.12Z"/>
    <path class="cls-6" d="M167.86,297.67l42.2-19.37,17.57,36.76,11.27-50.08-122.44-5.43,51.4,38.12Z"/>
  </g>
</svg>
